<svg width="375" height="332" viewBox="0 0 375 332" fill="none" xmlns="http://www.w3.org/2000/svg">
<g filter="url(#filter0_d_421_1288)">
<path d="M0 20H375V268C375 292.301 355.301 312 331 312H44C19.6995 312 0 292.301 0 268V20Z" fill="url(#paint0_linear_421_1288)" shape-rendering="crispEdges"/>
</g>
<path d="M395.41 167.387C405.182 177.159 409.875 187.065 409.487 197.105C409.219 207.266 403.999 217.433 393.825 227.606C388.103 233.329 381.783 238.2 374.867 242.221C367.951 246.241 360.699 248.909 353.111 250.223L354.016 251.128C358.118 255.23 361.7 257.921 364.762 259.203C367.945 260.605 370.768 261.521 373.233 261.952C375.819 262.503 378.16 262.936 380.257 263.253C382.474 263.69 384.609 264.934 386.66 266.985C388.711 269.036 389.694 271.672 389.609 274.894C389.772 278.109 388.455 281.115 385.657 283.913C382.605 286.965 379.029 288.731 374.931 289.21C370.832 289.689 366.448 289.247 361.778 287.884C357.109 286.521 352.399 284.355 347.648 281.384C343.024 278.286 338.661 274.687 334.559 270.585C326.717 262.743 320.867 254.476 317.01 245.787C312.729 243.794 308.521 241.367 304.386 238.504C300.372 235.761 296.314 232.339 292.212 228.237C288.11 224.135 284.51 219.772 281.412 215.149C278.442 210.398 276.275 205.688 274.912 201.018C273.549 196.349 273.107 191.965 273.587 187.866C274.066 183.767 275.832 180.192 278.884 177.14C281.681 174.342 284.628 172.964 287.722 173.007C291.064 173.043 293.761 174.086 295.812 176.137C297.863 178.188 299.047 180.262 299.363 182.358C299.8 184.576 300.233 186.917 300.664 189.382C301.215 191.968 302.131 194.792 303.413 197.854C304.815 201.036 307.567 204.678 311.669 208.78L312.574 209.685C313.888 202.097 316.555 194.846 320.576 187.929C324.596 181.013 329.468 174.694 335.19 168.971C345.364 158.798 355.471 153.517 365.511 153.129C375.671 152.862 385.638 157.614 395.41 167.387ZM357.049 192.356C352.471 196.934 348.757 201.613 345.907 206.393C343.178 211.294 341.621 216.35 341.236 221.561C346.326 221.055 351.321 219.438 356.222 216.709C361.123 213.98 365.863 210.326 370.441 205.748C378.58 197.609 380.417 191.307 375.953 186.844C371.489 182.38 365.188 184.217 357.049 192.356Z" fill="#D8E0EC" fill-opacity="0.27"/>
<path d="M-26.6131 96.3866C-36.3856 106.159 -41.0778 116.065 -40.6897 126.105C-40.4223 136.266 -35.2018 146.433 -25.0283 156.606C-19.3056 162.329 -12.9863 167.2 -6.07022 171.221C0.845835 175.241 8.09776 177.909 15.6855 179.223L14.7807 180.128C10.6787 184.23 7.0967 186.921 4.03486 188.203C0.852374 189.605 -1.97143 190.521 -4.43655 190.952C-7.02232 191.503 -9.36356 191.936 -11.4602 192.253C-13.6775 192.69 -15.8117 193.934 -17.8627 195.985C-19.9137 198.036 -20.8968 200.672 -20.812 203.894C-20.9751 207.109 -19.6577 210.115 -16.86 212.913C-13.8079 215.965 -10.2325 217.731 -6.13372 218.21C-2.03495 218.689 2.34914 218.247 7.01853 216.884C11.6879 215.521 16.3981 213.355 21.149 210.384C25.7727 207.286 30.1356 203.687 34.2376 199.585C42.0797 191.743 47.9295 183.476 51.7869 174.787C56.0683 172.794 60.2763 170.367 64.4109 167.504C68.4249 164.761 72.4829 161.339 76.5849 157.237C80.6869 153.135 84.2868 148.772 87.3845 144.149C90.355 139.398 92.5218 134.688 93.8848 130.018C95.2478 125.349 95.6896 120.965 95.2103 116.866C94.7309 112.767 92.9652 109.192 89.9131 106.14C87.1154 103.342 84.1693 101.964 81.0749 102.007C77.7326 102.043 75.0359 103.086 72.9849 105.137C70.9339 107.188 69.7503 109.262 69.434 111.358C68.9971 113.576 68.5634 115.917 68.133 118.382C67.5819 120.968 66.6656 123.792 65.3842 126.854C63.9821 130.036 61.23 133.678 57.128 137.78L56.2231 138.685C54.909 131.097 52.2417 123.846 48.2212 116.929C44.2007 110.013 39.3291 103.694 33.6064 97.9714C23.4329 87.7978 13.3262 82.517 3.28632 82.129C-6.87418 81.8616 -16.8407 86.6141 -26.6131 96.3866ZM11.748 121.356C16.3262 125.934 20.0402 130.613 22.8901 135.393C25.6193 140.294 27.1763 145.35 27.5611 150.561C22.4711 150.055 17.4756 148.438 12.5747 145.709C7.67378 142.98 2.93428 139.326 -1.64383 134.748C-9.78269 126.609 -11.6201 120.307 -7.15617 115.844C-2.69221 111.38 3.60919 113.217 11.748 121.356Z" fill="#D8E0EC" fill-opacity="0.27"/>
<defs>
<filter id="filter0_d_421_1288" x="-20" y="0" width="415" height="332" filterUnits="userSpaceOnUse" color-interpolation-filters="sRGB">
<feFlood flood-opacity="0" result="BackgroundImageFix"/>
<feColorMatrix in="SourceAlpha" type="matrix" values="0 0 0 0 0 0 0 0 0 0 0 0 0 0 0 0 0 0 127 0" result="hardAlpha"/>
<feOffset/>
<feGaussianBlur stdDeviation="10"/>
<feComposite in2="hardAlpha" operator="out"/>
<feColorMatrix type="matrix" values="0 0 0 0 0.568492 0 0 0 0 0.682196 0 0 0 0 0.812142 0 0 0 0.5 0"/>
<feBlend mode="normal" in2="BackgroundImageFix" result="effect1_dropShadow_421_1288"/>
<feBlend mode="normal" in="SourceGraphic" in2="effect1_dropShadow_421_1288" result="shape"/>
</filter>
<linearGradient id="paint0_linear_421_1288" x1="2.88761e-07" y1="64.858" x2="378.997" y2="84.676" gradientUnits="userSpaceOnUse">
<stop stop-color="#4DA9FF"/>
<stop offset="0.576024" stop-color="#77C7FF" stop-opacity="0.9"/>
</linearGradient>
</defs>
</svg>
