<svg width="375" height="263" viewBox="0 0 375 263" fill="none" xmlns="http://www.w3.org/2000/svg">
<path d="M392.418 127.387C402.19 137.159 406.882 147.065 406.494 157.105C406.227 167.266 401.007 177.433 390.833 187.606C385.11 193.329 378.791 198.2 371.875 202.221C364.959 206.241 357.707 208.909 350.119 210.223L351.024 211.128C355.126 215.23 358.708 217.921 361.77 219.203C364.952 220.605 367.776 221.521 370.241 221.952C372.827 222.503 375.168 222.936 377.265 223.253C379.482 223.69 381.616 224.934 383.667 226.985C385.718 229.036 386.702 231.672 386.617 234.894C386.78 238.109 385.462 241.115 382.665 243.913C379.613 246.965 376.037 248.731 371.938 249.21C367.84 249.689 363.456 249.247 358.786 247.884C354.117 246.521 349.407 244.355 344.656 241.384C340.032 238.286 335.669 234.687 331.567 230.585C323.725 222.743 317.875 214.476 314.018 205.787C309.736 203.794 305.528 201.367 301.394 198.504C297.38 195.761 293.322 192.339 289.22 188.237C285.118 184.135 281.518 179.772 278.42 175.149C275.45 170.398 273.283 165.688 271.92 161.018C270.557 156.349 270.115 151.965 270.594 147.866C271.074 143.767 272.839 140.192 275.892 137.14C278.689 134.342 281.635 132.964 284.73 133.007C288.072 133.043 290.769 134.086 292.82 136.137C294.871 138.188 296.054 140.262 296.371 142.358C296.808 144.576 297.241 146.917 297.672 149.382C298.223 151.968 299.139 154.792 300.421 157.854C301.823 161.036 304.575 164.678 308.677 168.78L309.582 169.685C310.896 162.097 313.563 154.846 317.583 147.929C321.604 141.013 326.476 134.694 332.198 128.971C342.372 118.798 352.479 113.517 362.518 113.129C372.679 112.862 382.645 117.614 392.418 127.387ZM354.057 152.356C349.479 156.934 345.765 161.613 342.915 166.393C340.185 171.294 338.628 176.35 338.244 181.561C343.334 181.055 348.329 179.438 353.23 176.709C358.131 173.98 362.87 170.326 367.449 165.748C375.587 157.609 377.425 151.307 372.961 146.844C368.497 142.38 362.195 144.217 354.057 152.356Z" fill="#3B82F6"/>
<path d="M-16.6131 53.3866C-26.3856 63.159 -31.0778 73.0652 -30.6897 83.105C-30.4223 93.2655 -25.2018 103.433 -15.0283 113.606C-9.30564 119.329 -2.98629 124.2 3.92978 128.221C10.8458 132.241 18.0978 134.909 25.6855 136.223L24.7807 137.128C20.6787 141.23 17.0967 143.921 14.0349 145.203C10.8524 146.605 8.02857 147.521 5.56345 147.952C2.97768 148.503 0.636442 148.936 -1.46021 149.253C-3.67753 149.69 -5.81169 150.934 -7.8627 152.985C-9.9137 155.036 -10.8968 157.672 -10.812 160.894C-10.9751 164.109 -9.65772 167.115 -6.85999 169.913C-3.80792 172.965 -0.232482 174.731 3.86628 175.21C7.96505 175.689 12.3491 175.247 17.0185 173.884C21.6879 172.521 26.3981 170.355 31.149 167.384C35.7727 164.286 40.1356 160.687 44.2376 156.585C52.0797 148.743 57.9295 140.476 61.7869 131.787C66.0683 129.794 70.2763 127.367 74.4109 124.504C78.4249 121.761 82.4829 118.339 86.5849 114.237C90.6869 110.135 94.2868 105.772 97.3845 101.149C100.355 96.3977 102.522 91.6876 103.885 87.0182C105.248 82.3488 105.69 77.9647 105.21 73.866C104.731 69.7672 102.965 66.1918 99.9131 63.1397C97.1154 60.342 94.1693 58.9643 91.0749 59.0067C87.7326 59.0425 85.0359 60.086 82.9849 62.137C80.9339 64.188 79.7503 66.2618 79.434 68.3585C78.9971 70.5758 78.5634 72.917 78.133 75.3822C77.5819 77.9679 76.6656 80.7917 75.3842 83.8536C73.9821 87.0361 71.23 90.6783 67.128 94.7803L66.2231 95.6852C64.909 88.0974 62.2417 80.8455 58.2212 73.9295C54.2007 67.0134 49.3291 60.694 43.6064 54.9714C33.4329 44.7978 23.3262 39.517 13.2863 39.129C3.12582 38.8616 -6.84067 43.6141 -16.6131 53.3866ZM21.748 78.3558C26.3262 82.934 30.0402 87.6131 32.8901 92.3934C35.6193 97.2943 37.1763 102.35 37.5611 107.561C32.4711 107.055 27.4756 105.438 22.5747 102.709C17.6738 99.9795 12.9343 96.3258 8.35617 91.7477C0.217314 83.6089 -1.62013 77.3075 2.84383 72.8435C7.30779 68.3795 13.6092 70.217 21.748 78.3558Z" fill="#3DDAB4"/>
</svg>
