<svg width="375" height="265" viewBox="0 0 375 265" fill="none" xmlns="http://www.w3.org/2000/svg">
<g clip-path="url(#clip0_421_3257)">
<g filter="url(#filter0_d_421_3257)">
<path d="M0 -3H375V221C375 245.301 355.301 265 331 265H44C19.6995 265 0 245.301 0 221V-3Z" fill="url(#paint0_linear_421_3257)"/>
</g>
<path d="M395.41 144.387C405.182 154.159 409.875 164.065 409.487 174.105C409.219 184.266 403.999 194.433 393.825 204.606C388.103 210.329 381.783 215.2 374.867 219.221C367.951 223.241 360.699 225.909 353.111 227.223L354.016 228.128C358.118 232.23 361.7 234.921 364.762 236.203C367.945 237.605 370.768 238.521 373.233 238.952C375.819 239.503 378.16 239.936 380.257 240.253C382.474 240.69 384.609 241.934 386.66 243.985C388.711 246.036 389.694 248.672 389.609 251.894C389.772 255.109 388.455 258.115 385.657 260.913C382.605 263.965 379.029 265.731 374.931 266.21C370.832 266.689 366.448 266.247 361.778 264.884C357.109 263.521 352.399 261.355 347.648 258.384C343.024 255.286 338.661 251.687 334.559 247.585C326.717 239.743 320.867 231.476 317.01 222.787C312.729 220.794 308.521 218.367 304.386 215.504C300.372 212.761 296.314 209.339 292.212 205.237C288.11 201.135 284.51 196.772 281.412 192.149C278.442 187.398 276.275 182.688 274.912 178.018C273.549 173.349 273.107 168.965 273.587 164.866C274.066 160.767 275.832 157.192 278.884 154.14C281.681 151.342 284.628 149.964 287.722 150.007C291.064 150.043 293.761 151.086 295.812 153.137C297.863 155.188 299.047 157.262 299.363 159.358C299.8 161.576 300.233 163.917 300.664 166.382C301.215 168.968 302.131 171.792 303.413 174.854C304.815 178.036 307.567 181.678 311.669 185.78L312.574 186.685C313.888 179.097 316.555 171.846 320.576 164.929C324.596 158.013 329.468 151.694 335.19 145.971C345.364 135.798 355.471 130.517 365.511 130.129C375.671 129.862 385.638 134.614 395.41 144.387ZM357.049 169.356C352.471 173.934 348.757 178.613 345.907 183.393C343.178 188.294 341.621 193.35 341.236 198.561C346.326 198.055 351.321 196.438 356.222 193.709C361.123 190.98 365.863 187.326 370.441 182.748C378.58 174.609 380.417 168.307 375.953 163.844C371.489 159.38 365.188 161.217 357.049 169.356Z" fill="#D8E0EC" fill-opacity="0.27"/>
<path d="M-26.6131 73.3866C-36.3856 83.159 -41.0778 93.0652 -40.6897 103.105C-40.4223 113.266 -35.2018 123.433 -25.0283 133.606C-19.3056 139.329 -12.9863 144.2 -6.07022 148.221C0.845835 152.241 8.09776 154.909 15.6855 156.223L14.7807 157.128C10.6787 161.23 7.0967 163.921 4.03486 165.203C0.852374 166.605 -1.97143 167.521 -4.43655 167.952C-7.02232 168.503 -9.36356 168.936 -11.4602 169.253C-13.6775 169.69 -15.8117 170.934 -17.8627 172.985C-19.9137 175.036 -20.8968 177.672 -20.812 180.894C-20.9751 184.109 -19.6577 187.115 -16.86 189.913C-13.8079 192.965 -10.2325 194.731 -6.13372 195.21C-2.03495 195.689 2.34914 195.247 7.01853 193.884C11.6879 192.521 16.3981 190.355 21.149 187.384C25.7727 184.286 30.1356 180.687 34.2376 176.585C42.0797 168.743 47.9295 160.476 51.7869 151.787C56.0683 149.794 60.2763 147.367 64.4109 144.504C68.4249 141.761 72.4829 138.339 76.5849 134.237C80.6869 130.135 84.2868 125.772 87.3845 121.149C90.355 116.398 92.5218 111.688 93.8848 107.018C95.2478 102.349 95.6896 97.9647 95.2103 93.866C94.7309 89.7672 92.9652 86.1918 89.9131 83.1397C87.1154 80.342 84.1693 78.9643 81.0749 79.0067C77.7326 79.0425 75.0359 80.086 72.9849 82.137C70.9339 84.188 69.7503 86.2618 69.434 88.3585C68.9971 90.5758 68.5634 92.917 68.133 95.3822C67.5819 97.9679 66.6656 100.792 65.3842 103.854C63.9821 107.036 61.23 110.678 57.128 114.78L56.2231 115.685C54.909 108.097 52.2417 100.846 48.2212 93.9295C44.2007 87.0134 39.3291 80.694 33.6064 74.9714C23.4329 64.7978 13.3262 59.517 3.28632 59.129C-6.87418 58.8616 -16.8407 63.6141 -26.6131 73.3866ZM11.748 98.3558C16.3262 102.934 20.0402 107.613 22.8901 112.393C25.6193 117.294 27.1763 122.35 27.5611 127.561C22.4711 127.055 17.4756 125.438 12.5747 122.709C7.67378 119.98 2.93428 116.326 -1.64383 111.748C-9.78269 103.609 -11.6201 97.3075 -7.15617 92.8435C-2.69221 88.3795 3.60919 90.217 11.748 98.3558Z" fill="#D8E0EC" fill-opacity="0.27"/>
</g>
<defs>
<filter id="filter0_d_421_3257" x="-20" y="-23" width="415" height="308" filterUnits="userSpaceOnUse" color-interpolation-filters="sRGB">
<feFlood flood-opacity="0" result="BackgroundImageFix"/>
<feColorMatrix in="SourceAlpha" type="matrix" values="0 0 0 0 0 0 0 0 0 0 0 0 0 0 0 0 0 0 127 0" result="hardAlpha"/>
<feOffset/>
<feGaussianBlur stdDeviation="10"/>
<feComposite in2="hardAlpha" operator="out"/>
<feColorMatrix type="matrix" values="0 0 0 0 0.568492 0 0 0 0 0.682196 0 0 0 0 0.812142 0 0 0 0.5 0"/>
<feBlend mode="normal" in2="BackgroundImageFix" result="effect1_dropShadow_421_3257"/>
<feBlend mode="normal" in="SourceGraphic" in2="effect1_dropShadow_421_3257" result="shape"/>
</filter>
<linearGradient id="paint0_linear_421_3257" x1="2.88761e-07" y1="38.171" x2="378.803" y2="59.7528" gradientUnits="userSpaceOnUse">
<stop stop-color="#3DDAB4"/>
<stop offset="0.576024" stop-color="#85DAE0"/>
</linearGradient>
<clipPath id="clip0_421_3257">
<rect width="375" height="265" fill="white"/>
</clipPath>
</defs>
</svg>
