<svg width="26" height="26" viewBox="0 0 26 26" fill="none" xmlns="http://www.w3.org/2000/svg">
<path fill-rule="evenodd" clip-rule="evenodd" d="M13.5406 19.369C15.0156 18.5104 19 15.8363 19 12.0025C19 8.8708 16.3137 6.33203 13 6.33203C9.68629 6.33203 7 8.8708 7 12.0025C7 15.7082 10.9954 18.4687 12.4655 19.359C12.7976 19.5601 13.2051 19.5643 13.5406 19.369ZM13 14.3319C14.2887 14.3319 15.3333 13.4569 15.3333 11.9985C15.3333 10.5402 14.2887 9.6652 13 9.6652C11.7113 9.6652 10.6667 10.5402 10.6667 11.9985C10.6667 13.4569 11.7113 14.3319 13 14.3319Z" fill="#8A94A6"/>
</svg>
