<svg width="16" height="16" viewBox="0 0 16 16" fill="none" xmlns="http://www.w3.org/2000/svg">
<path fill-rule="evenodd" clip-rule="evenodd" d="M2.70815 0.832031H5.20881C5.31051 0.832031 5.4098 0.863045 5.49342 0.920935C5.57704 0.978825 5.64101 1.06084 5.67681 1.15603L6.64748 3.73603C6.67947 3.82135 6.68754 3.91379 6.67081 4.00336L6.18415 6.61136C6.78215 8.0167 7.76948 8.96136 9.40615 9.8087L11.9828 9.3087C12.0744 9.29105 12.1691 9.29937 12.2561 9.3327L14.8441 10.3194C14.9388 10.3554 15.0202 10.4193 15.0777 10.5026C15.1352 10.586 15.166 10.6848 15.1661 10.786V13.1754C15.1661 14.2594 14.2115 15.1387 13.0941 14.8954C11.0588 14.4527 7.28748 13.3267 4.64615 10.6854C2.11548 8.15536 1.26748 4.6607 0.982813 2.77203C0.81948 1.69336 1.68415 0.832031 2.70815 0.832031Z" fill="#007BEB"/>
</svg>
