<svg width="24" height="24" viewBox="0 0 24 24" fill="none" xmlns="http://www.w3.org/2000/svg">
<path d="M8.60578 9.9568C8.8308 9.96399 9.05498 9.92588 9.26498 9.84473C9.47498 9.76358 9.66654 9.64105 9.82825 9.48442C9.98997 9.32778 10.1186 9.14024 10.2064 8.93294C10.2942 8.72563 10.3394 8.50279 10.3394 8.27766C10.3394 8.05252 10.2942 7.82968 10.2064 7.62237C10.1186 7.41507 9.98997 7.22753 9.82825 7.07089C9.66654 6.91426 9.47498 6.79173 9.26498 6.71058C9.05498 6.62943 8.8308 6.59132 8.60578 6.59851C8.16022 6.59851 7.7329 6.77551 7.41784 7.09057C7.10278 7.40564 6.92578 7.83295 6.92578 8.27851C6.92578 8.72408 7.10278 9.15139 7.41784 9.46645C7.7329 9.78151 8.16022 9.9568 8.60578 9.9568ZM15.4629 16.8499C15.9085 16.8499 16.3358 16.6729 16.6509 16.3579C16.9659 16.0428 17.1429 15.6155 17.1429 15.1699C17.1429 14.7244 16.9659 14.2971 16.6509 13.982C16.3358 13.6669 15.9085 13.4899 15.4629 13.4899C15.0174 13.4899 14.59 13.6669 14.275 13.982C13.9599 14.2971 13.7829 14.7244 13.7829 15.1699C13.7829 15.6155 13.9599 16.0428 14.275 16.3579C14.59 16.6729 15.0174 16.8499 15.4629 16.8499Z" stroke="#15161A" stroke-width="1.5" stroke-linecap="round" stroke-linejoin="round"/>
<path d="M22.7147 6.91341V8.90712C22.0998 9.17231 21.576 9.61177 21.208 10.1713C20.84 10.7307 20.6439 11.3857 20.6439 12.0554C20.6439 12.7251 20.84 13.3801 21.208 13.9396C21.576 14.499 22.0998 14.9385 22.7147 15.2037V17.1991C22.7147 19.0917 21.3553 20.3585 19.2861 20.6277C13.5964 21.3648 10.4147 21.37 4.7147 20.6277C2.70385 20.3654 1.28613 19.0917 1.28613 17.1991V15.2037C1.90105 14.9385 2.42485 14.499 2.79286 13.9396C3.16087 13.3801 3.35699 12.7251 3.35699 12.0554C3.35699 11.3857 3.16087 10.7307 2.79286 10.1713C2.42485 9.61177 1.90105 9.17231 1.28613 8.90712V6.91341C1.28613 5.01912 2.71756 3.82255 4.7147 3.48484C10.3461 2.52826 13.5724 2.67226 19.2861 3.48484C21.1753 3.75226 22.7147 5.01912 22.7147 6.91341Z" stroke="#15161A" stroke-width="1.5" stroke-linecap="round" stroke-linejoin="round"/>
<path d="M8.06738 15.6369C11.5388 12.7809 13.2737 11.0649 15.9325 7.77344" stroke="#15161A" stroke-width="1.5" stroke-linecap="round" stroke-linejoin="round"/>
</svg>
