<svg width="20" height="21" viewBox="0 0 20 21" fill="none" xmlns="http://www.w3.org/2000/svg">
<rect x="3.75" y="4.25" width="12.5" height="1.25" rx="0.625" fill="#15161A"/>
<path d="M8.33301 3.83333C8.33301 3.3731 8.7061 3 9.16634 3H10.833C11.2932 3 11.6663 3.3731 11.6663 3.83333V4.25H8.33301V3.83333Z" fill="#15161A"/>
<path d="M14.499 6.75C15.2212 6.75 15.7938 7.3604 15.7471 8.08105L15.1797 16.8311C15.137 17.4884 14.5914 17.9998 13.9326 18H6.06738C5.40847 18 4.86204 17.4886 4.81934 16.8311L4.25293 8.08105C4.20622 7.3604 4.77783 6.75 5.5 6.75H14.499ZM8.54199 10.5C8.19682 10.5 7.91699 10.7798 7.91699 11.125V14.875C7.91699 15.2202 8.19682 15.5 8.54199 15.5C8.88717 15.5 9.16699 15.2202 9.16699 14.875V11.125C9.16699 10.7798 8.88717 10.5 8.54199 10.5ZM11.459 10.5C11.1138 10.5 10.834 10.7798 10.834 11.125V14.875C10.834 15.2202 11.1138 15.5 11.459 15.5C11.804 15.4998 12.084 15.2201 12.084 14.875V11.125C12.084 10.7799 11.804 10.5002 11.459 10.5Z" fill="#15161A"/>
</svg>
