<svg width="16" height="16" viewBox="0 0 16 16" fill="none" xmlns="http://www.w3.org/2000/svg">
<path d="M6.17 1.90795C6.69458 1.50413 7.33799 1.28516 8 1.28516C8.66201 1.28516 9.30542 1.50413 9.83 1.90795L13.33 4.60095C13.6941 4.88125 13.989 5.24145 14.1918 5.65375C14.3947 6.06605 14.5001 6.51945 14.5 6.97895V11.501C14.5 12.2966 14.1839 13.0597 13.6213 13.6223C13.0587 14.1849 12.2956 14.501 11.5 14.501H4.5C3.70435 14.501 2.94129 14.1849 2.37868 13.6223C1.81607 13.0597 1.5 12.2966 1.5 11.501V6.97895C1.49988 6.51945 1.60531 6.06605 1.80817 5.65375C2.01103 5.24145 2.30589 4.88125 2.67 4.60095L6.17 1.90795ZM7 8.00095C6.31 8.00095 5.75 8.56095 5.75 9.25095V13.001H10.25V9.25095C10.25 8.56095 9.69 8.00095 9 8.00095H7Z" fill="#007BEB"/>
</svg>
