<svg width="40" height="32" viewBox="0 0 40 32" fill="none" xmlns="http://www.w3.org/2000/svg">
<path d="M20 0C23.661 0 26.3955 1.01705 28.2034 3.05116C30.0565 5.08527 30.983 8.08682 30.983 12.0558C30.983 14.2884 30.7119 16.4713 30.1695 18.6047C29.6271 20.738 28.7684 22.6729 27.5932 24.4093H27.9322C29.4689 24.4093 30.6441 24.2357 31.4576 23.8884C32.3164 23.5411 33.0169 23.169 33.5593 22.7721C34.1469 22.3752 34.6667 22.0031 35.1186 21.6558C35.6158 21.3085 36.2486 21.1349 37.0169 21.1349C37.7853 21.1349 38.4633 21.4574 39.0508 22.1023C39.6836 22.6977 40 23.5411 40 24.6326C40 25.8233 39.661 26.8651 38.9831 27.7581C38.3051 28.6512 37.4011 29.4202 36.2712 30.0651C35.1412 30.7101 33.8531 31.2062 32.4068 31.5535C30.9605 31.8512 29.4689 32 27.9322 32C24.9943 32 22.3503 31.5287 20 30.586C18.8249 31.0326 17.5819 31.3798 16.2712 31.6279C15.0056 31.876 13.6045 32 12.0678 32C10.5311 32 9.03955 31.8512 7.59322 31.5535C6.14689 31.2062 4.85876 30.7101 3.72881 30.0651C2.59887 29.4202 1.69492 28.6512 1.01695 27.7581C0.338983 26.8651 0 25.8233 0 24.6326C0 23.5411 0.293785 22.6977 0.881355 22.1023C1.51412 21.4574 2.21469 21.1349 2.98305 21.1349C3.75141 21.1349 4.36158 21.3085 4.81356 21.6558C5.31073 22.0031 5.83051 22.3752 6.37288 22.7721C6.96045 23.169 7.66102 23.5411 8.47458 23.8884C9.33333 24.2357 10.5311 24.4093 12.0678 24.4093H12.4068C11.2316 22.6729 10.3729 20.738 9.83051 18.6047C9.28813 16.4713 9.01695 14.2884 9.01695 12.0558C9.01695 8.08682 9.9209 5.08527 11.7288 3.05116C13.5819 1.01705 16.339 0 20 0ZM17.4915 12.3535C17.4915 14.1395 17.6723 15.7767 18.0339 17.2651C18.4407 18.7535 19.096 20.0434 20 21.1349C20.8588 20.0434 21.4915 18.7535 21.8983 17.2651C22.3051 15.7767 22.5085 14.1395 22.5085 12.3535C22.5085 9.17829 21.6723 7.5907 20 7.5907C18.3277 7.5907 17.4915 9.17829 17.4915 12.3535Z" fill="#4DAEFF"/>
</svg>
