<svg width="24" height="24" viewBox="0 0 24 24" fill="none" xmlns="http://www.w3.org/2000/svg">
<path d="M10.5214 2.62244C10.7088 2.41652 10.9372 2.25202 11.1919 2.13946C11.4466 2.02689 11.7219 1.96875 12.0004 1.96875C12.2788 1.96875 12.5542 2.02689 12.8089 2.13946C13.0636 2.25202 13.292 2.41652 13.4794 2.62244L14.4994 3.74244C14.6974 3.95985 14.941 4.13092 15.2127 4.24344C15.4844 4.35596 15.7776 4.40718 16.0714 4.39344L17.5844 4.32344C17.8624 4.31034 18.1401 4.35541 18.3997 4.45579C18.6593 4.55616 18.8951 4.70961 19.0921 4.90633C19.289 5.10305 19.4426 5.33871 19.5433 5.59822C19.6439 5.85774 19.6892 6.1354 19.6764 6.41344L19.6054 7.92744C19.5916 8.22121 19.6429 8.5144 19.7554 8.78612C19.8679 9.05783 20.039 9.30139 20.2564 9.49944L21.3764 10.5194C21.5823 10.7069 21.7468 10.9352 21.8594 11.1899C21.9719 11.4446 22.0301 11.72 22.0301 11.9984C22.0301 12.2769 21.9719 12.5523 21.8594 12.8069C21.7468 13.0616 21.5823 13.29 21.3764 13.4774L20.2564 14.4974C20.039 14.6955 19.8679 14.939 19.7554 15.2108C19.6429 15.4825 19.5916 15.7757 19.6054 16.0694L19.6754 17.5824C19.6885 17.8605 19.6434 18.1382 19.543 18.3978C19.4427 18.6574 19.2892 18.8932 19.0925 19.0901C18.8958 19.287 18.6601 19.4407 18.4006 19.5413C18.1411 19.6419 17.8634 19.6873 17.5854 19.6744L16.0714 19.6034C15.7776 19.5897 15.4844 19.6409 15.2127 19.7534C14.941 19.866 14.6974 20.037 14.4994 20.2544L13.4794 21.3744C13.292 21.5803 13.0636 21.7449 12.8089 21.8574C12.5542 21.97 12.2788 22.0281 12.0004 22.0281C11.7219 22.0281 11.4466 21.97 11.1919 21.8574C10.9372 21.7449 10.7088 21.5803 10.5214 21.3744L9.50139 20.2544C9.30334 20.037 9.05979 19.866 8.78807 19.7534C8.51635 19.6409 8.22316 19.5897 7.92939 19.6034L6.41639 19.6734C6.13836 19.6865 5.86066 19.6415 5.60105 19.5411C5.34144 19.4407 5.10563 19.2873 4.90873 19.0905C4.71182 18.8938 4.55814 18.6582 4.45752 18.3987C4.3569 18.1391 4.31156 17.8615 4.32439 17.5834L4.39539 16.0694C4.40913 15.7757 4.35792 15.4825 4.24539 15.2108C4.13287 14.939 3.96181 14.6955 3.74439 14.4974L2.62439 13.4774C2.41848 13.29 2.25397 13.0616 2.14141 12.8069C2.02885 12.5523 1.9707 12.2769 1.9707 11.9984C1.9707 11.72 2.02885 11.4446 2.14141 11.1899C2.25397 10.9352 2.41848 10.7069 2.62439 10.5194L3.74439 9.49944C3.96181 9.30139 4.13287 9.05783 4.24539 8.78612C4.35792 8.5144 4.40913 8.22121 4.39539 7.92744L4.32539 6.41444C4.31229 6.13641 4.35737 5.85871 4.45774 5.59909C4.55811 5.33948 4.71156 5.10368 4.90828 4.90677C5.105 4.70986 5.34066 4.55618 5.60017 4.45557C5.85969 4.35495 6.13735 4.3096 6.41539 4.32244L7.92939 4.39344C8.22316 4.40718 8.51635 4.35596 8.78807 4.24344C9.05979 4.13092 9.30334 3.95985 9.50139 3.74244L10.5214 2.62244Z" fill="#CCE8FF" stroke="#007BEB" stroke-width="1.5"/>
<path d="M9 12L11 14L15 10" stroke="#007BEB" stroke-width="1.5" stroke-linecap="round" stroke-linejoin="round"/>
</svg>
