<svg width="29" height="30" viewBox="0 0 29 30" fill="none" xmlns="http://www.w3.org/2000/svg">
<rect width="29" height="30" rx="14.5" fill="#8A94A6"/>
<path d="M14.5 22.7422C10.2031 22.7422 6.6875 19.2461 6.6875 14.9297C6.6875 10.6133 10.2031 7.11719 14.5 7.11719C18.8164 7.11719 22.332 10.6133 22.332 14.9297C22.332 19.2461 18.8164 22.7422 14.5 22.7422ZM14.5 20.9648C17.8398 20.9648 20.5352 18.25 20.5352 14.9297C20.5352 11.6094 17.8398 8.89453 14.5 8.89453C11.1797 8.89453 8.46484 11.6094 8.46484 14.9297C8.46484 18.25 11.1797 20.9648 14.5 20.9648ZM15.7695 11.5117V18.3477H14.2656V12.918H14.2266L12.6836 13.8945V12.5859L14.3828 11.5117H15.7695Z" fill="white"/>
</svg>
