<svg width="29" height="30" viewBox="0 0 29 30" fill="none" xmlns="http://www.w3.org/2000/svg">
<rect width="29" height="30" rx="14.5" fill="#8A94A6"/>
<path d="M14.5 22.7422C10.2031 22.7422 6.6875 19.2461 6.6875 14.9297C6.6875 10.6133 10.2031 7.11719 14.5 7.11719C18.8164 7.11719 22.332 10.6133 22.332 14.9297C22.332 19.2461 18.8164 22.7422 14.5 22.7422ZM14.5 20.9648C17.8398 20.9648 20.5352 18.25 20.5352 14.9297C20.5352 11.6094 17.8398 8.89453 14.5 8.89453C11.1797 8.89453 8.46484 11.6094 8.46484 14.9297C8.46484 18.25 11.1797 20.9648 14.5 20.9648ZM12.0586 18.2891V17.2148L14.5391 14.9688C15.1445 14.4023 15.4766 14.0312 15.4766 13.5039C15.4766 12.918 15.0273 12.5469 14.4414 12.5469C13.8164 12.5469 13.4062 12.9375 13.4062 13.582H11.9805C11.9805 12.2148 12.9961 11.3555 14.4414 11.3555C15.9258 11.3555 16.9219 12.1953 16.9219 13.3867C16.9219 14.1875 16.5312 14.8125 15.1055 16.1016L14.168 17.0391V17.0781H17.0195V18.2891H12.0586Z" fill="white"/>
</svg>
