<svg width="29" height="30" viewBox="0 0 29 30" fill="none" xmlns="http://www.w3.org/2000/svg">
<rect width="29" height="30" rx="14.5" fill="#8A94A6"/>
<path d="M14.5 22.7422C10.2031 22.7422 6.6875 19.2461 6.6875 14.9297C6.6875 10.6133 10.2031 7.11719 14.5 7.11719C18.8164 7.11719 22.332 10.6133 22.332 14.9297C22.332 19.2461 18.8164 22.7422 14.5 22.7422ZM14.5 20.9648C17.8398 20.9648 20.5352 18.25 20.5352 14.9297C20.5352 11.6094 17.8398 8.89453 14.5 8.89453C11.1797 8.89453 8.46484 11.6094 8.46484 14.9297C8.46484 18.25 11.1797 20.9648 14.5 20.9648ZM14.5391 18.4844C13.0742 18.4844 12.0195 17.6445 12 16.4336H13.4648C13.4844 16.9609 13.9531 17.3125 14.5391 17.3125C15.2227 17.3125 15.7109 16.8242 15.7109 16.1406C15.7109 15.4375 15.2031 14.9688 14.5195 14.9492C14.0117 14.9492 13.6602 15.1445 13.4648 15.5156H12.1172L12.4883 11.5508H16.7461V12.7812H13.6992L13.543 14.4414H13.6016C13.8359 14.1094 14.3438 13.8555 14.9688 13.8555C16.2188 13.8555 17.1367 14.793 17.1367 16.1016C17.1367 17.4883 16.082 18.4844 14.5391 18.4844Z" fill="white"/>
</svg>
