<svg width="29" height="30" viewBox="0 0 29 30" fill="none" xmlns="http://www.w3.org/2000/svg">
<rect width="29" height="30" rx="14.5" fill="#8A94A6"/>
<path d="M14.5 22.7422C10.2031 22.7422 6.6875 19.2461 6.6875 14.9297C6.6875 10.6133 10.2031 7.11719 14.5 7.11719C18.8164 7.11719 22.332 10.6133 22.332 14.9297C22.332 19.2461 18.8164 22.7422 14.5 22.7422ZM14.5 20.9648C17.8398 20.9648 20.5352 18.25 20.5352 14.9297C20.5352 11.6094 17.8398 8.89453 14.5 8.89453C11.1797 8.89453 8.46484 11.6094 8.46484 14.9297C8.46484 18.25 11.1797 20.9648 14.5 20.9648ZM14.5 18.4453C12.9766 18.4453 11.8828 17.6055 11.8828 16.3945H13.3867C13.3867 16.8828 13.875 17.2148 14.5 17.2148C15.1641 17.2148 15.6328 16.8438 15.6328 16.3359C15.6328 15.7891 15.1445 15.418 14.3828 15.418H13.7383V14.3242H14.3828C15.0273 14.3242 15.4961 13.9531 15.4766 13.4453C15.4961 12.9375 15.1055 12.6055 14.5195 12.6055C13.9336 12.6055 13.4453 12.9375 13.4453 13.4453H12C12.0195 12.2539 13.0938 11.4141 14.5195 11.4141C15.9648 11.4141 16.9219 12.2734 16.9219 13.3477C16.9219 14.1289 16.3945 14.6758 15.6133 14.793V14.8516C16.6289 14.9688 17.1953 15.5742 17.1953 16.4336C17.1953 17.6055 16.0625 18.4453 14.5 18.4453Z" fill="white"/>
</svg>
