<svg width="32" height="32" viewBox="0 0 32 32" fill="none" xmlns="http://www.w3.org/2000/svg">
<rect width="32" height="32" rx="16" fill="#CCE8FF"/>
<rect x="4.92285" y="4.92188" width="22.1538" height="22.1538" rx="11.0769" fill="#99D1FF"/>
<path d="M15.8477 20.6367C13.8789 20.6367 12.4707 19.584 12.4023 18.0117H13.6465C13.7148 18.9551 14.6582 19.543 15.834 19.543C17.1328 19.543 18.0898 18.832 18.0898 17.8066C18.0898 16.7266 17.2285 15.9609 15.6836 15.9609H14.877V14.8809H15.6836C16.8867 14.8809 17.7207 14.2109 17.7207 13.1855C17.7207 12.2012 16.9961 11.5312 15.875 11.5312C14.8223 11.5312 13.8516 12.1191 13.7969 13.0898H12.6074C12.6758 11.5176 14.125 10.4648 15.8887 10.4648C17.7754 10.4648 18.9238 11.6953 18.9102 13.1172C18.9238 14.2383 18.2676 15.0723 17.2285 15.3594V15.4277C18.5137 15.6328 19.3066 16.5488 19.293 17.8066C19.3066 19.4336 17.8164 20.6367 15.8477 20.6367Z" fill="white"/>
</svg>
