<svg width="165" height="146" viewBox="0 0 165 146" fill="none" xmlns="http://www.w3.org/2000/svg">
<path d="M53.7772 121.209C43.4756 114.061 37.5931 106.11 36.1299 97.3575C34.5394 88.5167 37.2797 79.0013 44.3509 68.8113C48.3284 63.0795 52.9806 58.0045 58.3075 53.5864C63.6344 49.1683 69.498 45.8775 75.8983 43.714L74.9444 43.0521C70.6203 40.0515 67.0042 38.2027 64.0962 37.5057C61.0611 36.7205 58.4269 36.3079 56.1936 36.2678C53.8331 36.1395 51.7076 36.0799 49.8171 36.089C47.7994 36.0098 45.7095 35.2201 43.5474 33.7198C41.3854 32.2194 40.0522 30.0677 39.5479 27.2645C38.828 24.5004 39.4404 21.7173 41.3849 18.915C43.5063 15.858 46.3163 13.8451 49.815 12.8761C53.3137 11.9072 57.2274 11.698 61.5559 12.2485C65.8845 12.7989 70.3931 14.0404 75.0816 15.9729C79.6817 18.0328 84.1438 20.5631 88.468 23.5637C96.7347 29.3003 103.335 35.6732 108.269 42.6825C112.371 43.8308 116.487 45.3661 120.618 47.2886C124.621 49.1229 128.784 51.5403 133.108 54.541C137.433 57.5416 141.364 60.8361 144.904 64.4245C148.355 68.1403 151.096 71.9293 153.126 75.7915C155.157 79.6537 156.33 83.3931 156.647 87.0097C156.964 90.6262 156.061 93.963 153.94 97.02C151.995 99.8223 149.666 101.414 146.952 101.795C144.022 102.216 141.477 101.676 139.314 100.175C137.152 98.6749 135.745 97.0376 135.092 95.2635C134.311 93.401 133.512 91.4308 132.693 89.3527C131.747 87.1864 130.438 84.8632 128.768 82.383C126.97 79.8145 123.909 77.03 119.585 74.0293L118.631 73.3674C118.844 80.1202 117.813 86.7646 115.539 93.3008C113.264 99.837 110.138 105.971 106.161 111.703C99.0896 121.893 91.1984 127.834 82.4872 129.526C73.6489 131.13 64.0789 128.358 53.7772 121.209ZM82.8446 94.391C86.0266 89.8055 88.4348 85.2491 90.069 80.7218C91.576 76.1062 92.03 71.5148 91.431 66.9475C87.07 68.0729 82.9913 70.1491 79.195 73.176C75.3987 76.203 71.9096 80.0092 68.7276 84.5947C63.0707 92.7467 62.5951 98.4554 67.3008 101.721C72.0064 104.986 77.1877 102.543 82.8446 94.391Z" fill="#4DAEFF"/>
<circle cx="55.7018" cy="102.702" r="5.91254" transform="rotate(8.27026 55.7018 102.702)" fill="white"/>
<circle cx="54.9912" cy="102.205" r="5.13713" transform="rotate(8.27026 54.9912 102.205)" fill="#3A4254"/>
<circle cx="73.7018" cy="115.702" r="5.91254" transform="rotate(8.27026 73.7018 115.702)" fill="white"/>
<circle cx="72.9912" cy="115.205" r="5.13713" transform="rotate(8.27026 72.9912 115.205)" fill="#3A4254"/>
<path d="M52.5111 125.908C51.6726 125.293 51.0626 124.488 50.6809 123.494C50.2898 122.512 50.0673 121.436 50.0134 120.265C49.963 119.117 50.0545 117.924 50.2879 116.686C50.5214 115.449 50.8468 114.288 51.2643 113.205C51.3797 112.913 51.5259 112.673 51.7032 112.486C51.8581 112.302 52.0375 112.165 52.2413 112.077C52.4358 112.001 52.6388 111.981 52.8503 112.018C53.049 112.044 53.2387 112.124 53.4193 112.256C53.7805 112.521 53.9851 112.811 54.0332 113.124C54.0942 113.446 54.0485 113.82 53.8961 114.244C53.5793 115.162 53.3443 116.091 53.1909 117.03C53.0281 117.982 52.9638 118.868 52.9979 119.687C53.0356 120.528 53.1665 121.269 53.3909 121.91C53.6152 122.551 53.9467 123.032 54.3853 123.354C54.8239 123.676 55.3825 123.848 56.0612 123.869C56.7398 123.891 57.4796 123.789 58.2805 123.563C59.0848 123.359 59.9166 123.037 60.7761 122.596C61.626 122.168 62.4416 121.665 63.2228 121.087C63.5815 120.814 63.9175 120.654 64.2306 120.606C64.5566 120.567 64.9002 120.681 65.2614 120.946C65.6226 121.211 65.7911 121.562 65.7669 122.001C65.7461 122.462 65.4914 122.89 65.0027 123.286C64.0822 124 63.0666 124.654 61.9559 125.248C60.8582 125.851 59.7476 126.296 58.6241 126.583C57.5041 126.893 56.4173 127.008 55.3636 126.93C54.3004 126.864 53.3496 126.524 52.5111 125.908Z" fill="#3A4254"/>
</svg>
